<svg width="1280" height="832" viewBox="0 0 1280 832" fill="none" xmlns="http://www.w3.org/2000/svg">
<rect width="1280" height="832" fill="#EAF0FF"/>
<path d="M80.0171 44.3363L62.9828 68.6639M59.3362 47.9829L83.6638 65.0173" stroke="#D9E4FF" stroke-width="12" stroke-linecap="round" stroke-linejoin="round"/>
<path d="M400 355L379 376M379 355L400 376" stroke="#D9E4FF" stroke-width="12" stroke-linecap="round" stroke-linejoin="round"/>
<path d="M894 67L873 88M873 67L894 88" stroke="#D9E4FF" stroke-width="12" stroke-linecap="round" stroke-linejoin="round"/>
<path d="M1260 142L1239 163M1239 142L1260 163" stroke="#D9E4FF" stroke-width="12" stroke-linecap="round" stroke-linejoin="round"/>
<path d="M1004.02 572.336L986.983 596.664M983.336 575.983L1007.66 593.017" stroke="#D9E4FF" stroke-width="12" stroke-linecap="round" stroke-linejoin="round"/>
<path d="M251 787L230 808M230 787L251 808" stroke="#D9E4FF" stroke-width="12" stroke-linecap="round" stroke-linejoin="round"/>
<path d="M106 376L85 397M85 376L106 397" stroke="#D9E4FF" stroke-width="12" stroke-linecap="round" stroke-linejoin="round"/>
<path d="M377.017 496.336L359.983 520.664M356.336 499.983L380.664 517.017" stroke="#D9E4FF" stroke-width="12" stroke-linecap="round" stroke-linejoin="round"/>
<path d="M333 84L312 105M312 84L333 105" stroke="#D9E4FF" stroke-width="12" stroke-linecap="round" stroke-linejoin="round"/>
<path d="M705 519L684 540M684 519L705 540" stroke="#D9E4FF" stroke-width="12" stroke-linecap="round" stroke-linejoin="round"/>
<path d="M1195 376L1174 397M1174 376L1195 397" stroke="#D9E4FF" stroke-width="12" stroke-linecap="round" stroke-linejoin="round"/>
<path d="M1146.84 94.6567L1118.16 102.343M1128.66 84.1567L1136.34 112.843" stroke="#D9E4FF" stroke-width="12" stroke-linecap="round" stroke-linejoin="round"/>
<path d="M684 266L663 287M663 266L684 287" stroke="#D9E4FF" stroke-width="12" stroke-linecap="round" stroke-linejoin="round"/>
<path d="M1104 766L1083 787M1083 766L1104 787" stroke="#D9E4FF" stroke-width="12" stroke-linecap="round" stroke-linejoin="round"/>
<path d="M446.844 628.657L418.157 636.343M428.657 618.157L436.344 646.843" stroke="#D9E4FF" stroke-width="12" stroke-linecap="round" stroke-linejoin="round"/>
<path d="M267.681 245L250.647 269.328M247 248.647L271.328 265.681" stroke="#D9E4FF" stroke-width="12" stroke-linecap="round" stroke-linejoin="round"/>
<path d="M82 177C89.732 177 96 170.732 96 163C96 155.268 89.732 149 82 149C74.268 149 68 155.268 68 163C68 170.732 74.268 177 82 177Z" stroke="#D9E4FF" stroke-width="12" stroke-linecap="round" stroke-linejoin="round"/>
<path d="M1038 266C1045.73 266 1052 259.732 1052 252C1052 244.268 1045.73 238 1038 238C1030.27 238 1024 244.268 1024 252C1024 259.732 1030.27 266 1038 266Z" stroke="#D9E4FF" stroke-width="12" stroke-linecap="round" stroke-linejoin="round"/>
<path d="M201 568C208.732 568 215 561.732 215 554C215 546.268 208.732 540 201 540C193.268 540 187 546.268 187 554C187 561.732 193.268 568 201 568Z" stroke="#D9E4FF" stroke-width="12" stroke-linecap="round" stroke-linejoin="round"/>
<path d="M898 390C905.732 390 912 383.732 912 376C912 368.268 905.732 362 898 362C890.268 362 884 368.268 884 376C884 383.732 890.268 390 898 390Z" stroke="#D9E4FF" stroke-width="12" stroke-linecap="round" stroke-linejoin="round"/>
<path d="M626 444C633.732 444 640 437.732 640 430C640 422.268 633.732 416 626 416C618.268 416 612 422.268 612 430C612 437.732 618.268 444 626 444Z" stroke="#D9E4FF" stroke-width="12" stroke-linecap="round" stroke-linejoin="round"/>
<path d="M733 127C740.732 127 747 120.732 747 113C747 105.268 740.732 99 733 99C725.268 99 719 105.268 719 113C719 120.732 725.268 127 733 127Z" stroke="#D9E4FF" stroke-width="12" stroke-linecap="round" stroke-linejoin="round"/>
<path d="M45 720C52.732 720 59 713.732 59 706C59 698.268 52.732 692 45 692C37.268 692 31 698.268 31 706C31 713.732 37.268 720 45 720Z" stroke="#D9E4FF" stroke-width="12" stroke-linecap="round" stroke-linejoin="round"/>
<path d="M1236 609C1243.73 609 1250 602.732 1250 595C1250 587.268 1243.73 581 1236 581C1228.27 581 1222 587.268 1222 595C1222 602.732 1228.27 609 1236 609Z" stroke="#D9E4FF" stroke-width="12" stroke-linecap="round" stroke-linejoin="round"/>
<path d="M705 772C712.732 772 719 765.732 719 758C719 750.268 712.732 744 705 744C697.268 744 691 750.268 691 758C691 765.732 697.268 772 705 772Z" stroke="#D9E4FF" stroke-width="12" stroke-linecap="round" stroke-linejoin="round"/>
<path d="M503 191C510.732 191 517 184.732 517 177C517 169.268 510.732 163 503 163C495.268 163 489 169.268 489 177C489 184.732 495.268 191 503 191Z" stroke="#D9E4FF" stroke-width="12" stroke-linecap="round" stroke-linejoin="round"/>
</svg>
