<svg width="32" height="32" viewBox="0 0 32 32" fill="none" xmlns="http://www.w3.org/2000/svg">
<path d="M11.3333 20.6667L20.6667 11.3334M12 5.33341V2.66675M20 26.6667V29.3334M5.33333 12.0001H2.66666M26.6667 20.0001H29.3333M6.55228 6.55237L4.66666 4.66675M25.4478 25.4477L27.3334 27.3333M16 23.5424L13.1716 26.3709C11.0888 28.4537 7.71194 28.4537 5.62914 26.3709C3.54635 24.2881 3.54635 20.9112 5.62914 18.8284L8.45757 16M23.5425 16L26.3709 13.1715C28.4537 11.0887 28.4537 7.71186 26.3709 5.62906C24.2881 3.54627 20.9113 3.54627 18.8285 5.62907L16 8.45749" stroke="#06D188" stroke-width="3" stroke-linecap="round" stroke-linejoin="round"/>
</svg>
