<svg width="32" height="32" viewBox="0 0 32 32" fill="none" xmlns="http://www.w3.org/2000/svg">
<path d="M10.6667 18.6665C10.6667 18.6665 12.6667 21.3332 16 21.3332C19.3333 21.3332 21.3333 18.6665 21.3333 18.6665M22.6667 12.3198C22.14 12.9665 21.42 13.3332 20.6667 13.3332C19.9133 13.3332 19.2133 12.9665 18.6667 12.3198M13.3333 12.3198C12.8067 12.9665 12.0867 13.3332 11.3333 13.3332C10.58 13.3332 9.88 12.9665 9.33333 12.3198M29.3333 15.9998C29.3333 23.3636 23.3638 29.3332 16 29.3332C8.6362 29.3332 2.66666 23.3636 2.66666 15.9998C2.66666 8.63604 8.6362 2.6665 16 2.6665C23.3638 2.6665 29.3333 8.63604 29.3333 15.9998Z" stroke="#88A0E1" stroke-width="3" stroke-linecap="round" stroke-linejoin="round"/>
</svg>
