<svg width="32" height="32" viewBox="0 0 32 32" fill="none" xmlns="http://www.w3.org/2000/svg">
<path d="M10.6667 18.6667C10.6667 18.6667 12.6667 21.3334 16 21.3334C19.3333 21.3334 21.3333 18.6667 21.3333 18.6667M20 12.0001H20.0133M10.6667 12.0001H13.3333M29.3333 16.0001C29.3333 23.3639 23.3638 29.3334 16 29.3334C8.63619 29.3334 2.66666 23.3639 2.66666 16.0001C2.66666 8.63628 8.63619 2.66675 16 2.66675C23.3638 2.66675 29.3333 8.63628 29.3333 16.0001ZM20.6667 12.0001C20.6667 12.3683 20.3682 12.6667 20 12.6667C19.6318 12.6667 19.3333 12.3683 19.3333 12.0001C19.3333 11.6319 19.6318 11.3334 20 11.3334C20.3682 11.3334 20.6667 11.6319 20.6667 12.0001Z" stroke="#88A0E1" stroke-width="3" stroke-linecap="round" stroke-linejoin="round"/>
</svg>
