<svg width="32" height="32" viewBox="0 0 32 32" fill="none" xmlns="http://www.w3.org/2000/svg">
<path d="M7.99998 14.6666H13.3333M10.6666 12V17.3333M20 16H20.0133M24 13.3333H24.0133M13.9319 6.66663H18.068C21.5679 6.66663 23.3178 6.66663 24.6914 7.32987C25.9007 7.91382 26.9055 8.84941 27.5742 10.0141C28.3336 11.3369 28.4582 13.0824 28.7076 16.5733L29.0356 21.166C29.1965 23.4179 27.413 25.3333 25.1554 25.3333C24.0008 25.3333 22.906 24.8205 22.1669 23.9336L21.6666 23.3333C21.2091 22.7843 20.9803 22.5097 20.7198 22.2879C20.1737 21.8229 19.5126 21.5132 18.8058 21.3914C18.4686 21.3333 18.1113 21.3333 17.3966 21.3333H14.6034C13.8887 21.3333 13.5313 21.3333 13.1942 21.3914C12.4873 21.5132 11.8262 21.8229 11.2801 22.2879C11.0196 22.5097 10.7909 22.7842 10.3333 23.3333L9.83309 23.9336C9.09399 24.8205 7.99911 25.3333 6.84459 25.3333C4.58696 25.3333 2.80346 23.4179 2.96431 21.166L3.29236 16.5733C3.54171 13.0824 3.66639 11.3369 4.4258 10.0141C5.09444 8.84941 6.09924 7.91382 7.30859 7.32987C8.68214 6.66663 10.4321 6.66663 13.9319 6.66663Z" stroke="#FF5D00" stroke-width="3" stroke-linecap="round" stroke-linejoin="round"/>
</svg>
