<svg viewBox="0 0 887 228" fill="none" xmlns="http://www.w3.org/2000/svg">
<g filter="url(#filter0_d_2358_1177)">
<path d="M111.599 84.355V56.355H83.5991V84.355H111.599ZM74.7607 84.355H102.761V56.355H74.7607V84.355ZM93.2266 210.933C105.03 210.933 117.482 207.005 126.901 197.17C136.183 187.479 139.599 175.107 139.599 163.721H83.5991C83.5991 164.272 83.5176 161.506 86.458 158.436C89.5357 155.223 92.8011 154.933 93.2266 154.933V210.933ZM139.599 163.721V84.355H83.5991V163.721H139.599ZM111.599 112.355H133.049V56.355H111.599V112.355ZM133.049 112.355C158.179 112.355 175.039 91.686 175.039 69.5264H119.039C119.039 67.0203 119.981 63.7549 122.636 60.926C125.379 58.0037 129.246 56.355 133.049 56.355V112.355ZM175.039 69.5264C175.039 47.3668 158.179 26.6978 133.049 26.6978V82.6978C129.246 82.6978 125.379 81.049 122.636 78.1267C119.981 75.2978 119.039 72.0324 119.039 69.5264H175.039ZM133.049 26.6978H53.5903V82.6978H133.049V26.6978ZM53.5903 26.6978C28.823 26.6978 11.4146 47.0769 11.4146 69.5264H67.4146C67.4146 75.3752 62.3167 82.6978 53.5903 82.6978V26.6978ZM11.4146 69.5264C11.4146 91.9758 28.823 112.355 53.5903 112.355V56.355C62.3167 56.355 67.4146 63.6775 67.4146 69.5264H11.4146ZM53.5903 112.355H74.7607V56.355H53.5903V112.355ZM46.7607 84.355V163.721H102.761V84.355H46.7607ZM46.7607 163.721C46.7607 175.007 50.0731 187.465 59.4695 197.241C69.0033 207.16 81.5455 210.933 93.2266 210.933V154.933C93.3431 154.933 96.6524 155.114 99.8444 158.435C102.899 161.614 102.761 164.465 102.761 163.721H46.7607ZM119.139 55.9102C119.139 68.5622 124.326 80.3669 133.716 88.7203C142.871 96.866 154.461 100.417 165.698 100.417V44.4175C166.024 44.4175 168.334 44.5649 170.938 46.8818C173.776 49.4063 175.139 52.9573 175.139 55.9102H119.139ZM165.698 100.417C176.946 100.417 188.515 96.8317 197.637 88.6873C206.983 80.3421 212.164 68.5565 212.164 55.9102H156.164C156.164 52.9631 157.521 49.4311 160.34 46.9148C162.933 44.5992 165.269 44.4175 165.698 44.4175V100.417ZM212.164 55.9102C212.164 27.8362 188.69 11.5894 165.698 11.5894V67.5894C165.271 67.5894 162.985 67.4116 160.423 65.143C157.643 62.6801 156.164 59.1091 156.164 55.9102H212.164ZM165.698 11.5894C142.712 11.5894 119.139 27.7487 119.139 55.9102H175.139C175.139 59.1152 173.655 62.7049 170.855 65.1758C168.283 67.4457 166.022 67.5894 165.698 67.5894V11.5894ZM211.511 163.441V100.489H155.511V163.441H211.511ZM211.511 100.489C211.511 89.923 208.916 77.2695 199.6 67.0867C189.908 56.4926 177.029 52.9976 165.698 52.9976V108.998C165.887 108.998 164.989 109.029 163.457 108.45C161.805 107.825 159.913 106.669 158.283 104.887C154.982 101.28 155.511 98.3719 155.511 100.489H211.511ZM165.698 52.9976C154.367 52.9976 141.489 56.4926 131.797 67.0867C122.48 77.2695 119.885 89.923 119.885 100.489H175.885C175.885 98.3719 176.415 101.28 173.114 104.887C171.483 106.669 169.592 107.825 167.94 108.45C166.407 109.029 165.51 108.998 165.698 108.998V52.9976ZM119.885 100.489V163.441H175.885V100.489H119.885ZM119.885 163.441C119.885 174.007 122.48 186.661 131.797 196.843C141.489 207.438 154.367 210.933 165.698 210.933V154.933C165.51 154.933 166.407 154.901 167.94 155.48C169.592 156.105 171.483 157.261 173.114 159.043C176.415 162.651 175.885 165.558 175.885 163.441H119.885ZM165.698 210.933C177.029 210.933 189.908 207.438 199.6 196.843C208.916 186.661 211.511 174.007 211.511 163.441H155.511C155.511 165.558 154.982 162.651 158.283 159.043C159.913 157.261 161.805 156.105 163.457 155.48C164.989 154.901 165.887 154.933 165.698 154.933V210.933ZM271.744 176.964L256.85 153.254L256.771 153.304L256.693 153.354L271.744 176.964ZM258.688 151.317L242.853 128.224L242.318 128.591L241.801 128.982L258.688 151.317ZM257.196 111.867L239.561 133.616L240.509 134.385L241.52 135.068L257.196 111.867ZM273.516 87.8989L290.139 65.3667L290.045 65.2979L289.951 65.2298L273.516 87.8989ZM164.006 135.835C164.006 157.446 170.624 177.705 185.982 192.437C201.153 206.99 221.267 212.705 241.528 212.705V156.705C231.385 156.705 226.737 153.932 224.748 152.024C222.946 150.296 220.006 146.12 220.006 135.835H164.006ZM241.528 212.705C258.355 212.705 274.061 208.693 286.796 200.574L256.693 153.354C254.506 154.748 249.695 156.705 241.528 156.705V212.705ZM286.639 200.674C299.075 192.862 311.122 178.756 311.122 159.804H255.122C255.122 156.668 256.164 154.543 256.779 153.61C257.366 152.719 257.625 152.767 256.85 153.254L286.639 200.674ZM311.122 159.804C311.122 150.195 308.056 139.498 299.921 131.021C291.619 122.37 280.64 118.747 270.159 118.747V174.747C267.885 174.747 263.387 173.829 259.515 169.794C255.811 165.934 255.122 161.765 255.122 159.804H311.122ZM270.159 118.747C254.962 118.747 245.035 126.728 242.853 128.224L274.523 174.409C274.778 174.234 275.023 174.065 275.226 173.925C275.442 173.775 275.606 173.661 275.77 173.549C276.093 173.326 276.27 173.208 276.384 173.134C276.609 172.987 276.336 173.182 275.752 173.461C275.116 173.765 274.212 174.122 273.106 174.385C271.994 174.65 270.982 174.747 270.159 174.747V118.747ZM241.801 128.982C240.951 129.625 240.581 129.885 240.37 130.025C240.203 130.134 240.385 130 240.827 129.795C241.299 129.576 241.954 129.329 242.738 129.15C243.525 128.97 244.205 128.913 244.699 128.913V184.913C260.666 184.913 270.918 177.172 275.575 173.651L241.801 128.982ZM244.699 128.913C244.927 128.913 247.003 128.957 249.785 130.384C252.783 131.923 254.921 134.206 256.164 136.272C257.228 138.042 257.316 139.104 257.203 138.481C257.096 137.895 256.937 136.53 256.937 134.063H200.937C200.937 142.019 201.65 154.281 208.169 165.126C216.489 178.964 230.477 184.913 244.699 184.913V128.913ZM256.937 134.063V127.908H200.937V134.063H256.937ZM256.937 127.908C256.937 124.452 257.716 125.684 255.716 128.562C254.539 130.255 252.671 132.067 250.128 133.345C247.64 134.596 245.513 134.831 244.419 134.831V78.8311C230.661 78.8311 217.899 84.8535 209.736 96.5949C202.63 106.817 200.937 118.588 200.937 127.908H256.937ZM244.419 134.831C243.871 134.831 243.178 134.773 242.398 134.606C241.619 134.439 240.92 134.201 240.339 133.946C239.238 133.464 238.864 133.051 239.561 133.616L274.83 90.118C268.843 85.2636 258.913 78.8311 244.419 78.8311V134.831ZM241.52 135.068C243.249 136.236 253.883 144.81 269.32 144.81V88.8101C270.335 88.8101 271.426 88.9413 272.509 89.2142C273.569 89.4814 274.368 89.82 274.837 90.0489C275.259 90.2549 275.39 90.3624 275.033 90.1308C274.856 90.0161 274.625 89.8614 274.252 89.6072C273.984 89.4249 273.343 88.9853 272.872 88.6667L241.52 135.068ZM269.32 144.81C293.061 144.81 310.843 126.234 310.843 103.38H254.843C254.843 100.353 256.02 96.4655 259.193 93.2608C262.424 89.9984 266.369 88.8101 269.32 88.8101V144.81ZM310.843 103.38C310.843 85.2661 299.775 72.4758 290.139 65.3667L256.894 110.431C257.503 110.88 257.146 110.781 256.521 109.774C255.824 108.65 254.843 106.425 254.843 103.38H310.843ZM289.951 65.2298C276.617 55.5623 258.975 51.0391 241.714 51.0391V107.039C245.691 107.039 249.19 107.578 251.982 108.372C254.851 109.188 256.473 110.127 257.081 110.568L289.951 65.2298ZM241.714 51.0391C220.001 51.0391 199.952 57.737 185.231 72.2133C170.515 86.6855 164.006 106.108 164.006 125.95H220.006C220.006 118.279 222.356 114.246 224.497 112.141C226.633 110.04 231.438 107.039 241.714 107.039V51.0391ZM164.006 125.95V135.835H220.006V125.95H164.006ZM344.03 84.355V56.355H316.03V84.355H344.03ZM307.191 84.355H335.191V56.355H307.191V84.355ZM325.657 210.933C337.461 210.933 349.912 207.005 359.332 197.17C368.614 187.479 372.03 175.107 372.03 163.721H316.03C316.03 164.272 315.948 161.506 318.889 158.436C321.966 155.223 325.232 154.933 325.657 154.933V210.933ZM372.03 163.721V84.355H316.03V163.721H372.03ZM344.03 112.355H365.48V56.355H344.03V112.355ZM365.48 112.355C390.609 112.355 407.469 91.686 407.469 69.5264H351.469C351.469 67.0203 352.411 63.7549 355.066 60.926C357.809 58.0037 361.676 56.355 365.48 56.355V112.355ZM407.469 69.5264C407.469 47.3668 390.609 26.6978 365.48 26.6978V82.6978C361.676 82.6978 357.809 81.049 355.066 78.1267C352.411 75.2978 351.469 72.0324 351.469 69.5264H407.469ZM365.48 26.6978H286.021V82.6978H365.48V26.6978ZM286.021 26.6978C261.254 26.6978 243.845 47.0769 243.845 69.5264H299.845C299.845 75.3752 294.747 82.6978 286.021 82.6978V26.6978ZM243.845 69.5264C243.845 91.9758 261.254 112.355 286.021 112.355V56.355C294.747 56.355 299.845 63.6775 299.845 69.5264H243.845ZM286.021 112.355H307.191V56.355H286.021V112.355ZM279.191 84.355V163.721H335.191V84.355H279.191ZM279.191 163.721C279.191 175.007 282.504 187.465 291.9 197.241C301.434 207.16 313.976 210.933 325.657 210.933V154.933C325.774 154.933 329.083 155.114 332.275 158.435C335.33 161.614 335.191 164.465 335.191 163.721H279.191ZM425.082 170.156V142.156H408.047L400.216 157.284L425.082 170.156ZM426.854 170.156H454.854V142.156H426.854V170.156ZM426.854 170.715H398.854V173.52L399.41 176.269L426.854 170.715ZM386.471 85.3809L397.821 110.978L397.992 110.902L398.161 110.824L386.471 85.3809ZM396.637 111.121L409.159 136.165L409.343 136.073L409.526 135.978L396.637 111.121ZM425.175 122.312V150.312H453.175V122.312H425.175ZM404.751 122.312V94.3125H404.695L404.64 94.3127L404.751 122.312ZM425.175 140.405H453.175V112.405H425.175V140.405ZM425.082 198.156H426.854V142.156H425.082V198.156ZM398.854 170.156V170.715H454.854V170.156H398.854ZM399.41 176.269C401.496 186.577 407.091 195.958 416.059 202.446C424.71 208.706 434.603 210.933 443.547 210.933V154.933C443.632 154.933 445.971 154.968 448.887 157.077C452.118 159.416 453.797 162.688 454.297 165.161L399.41 176.269ZM443.547 210.933C454.634 210.933 467.215 207.496 476.771 197.258C486.05 187.316 488.801 174.873 488.801 164.28H432.801C432.801 165.811 432.427 162.695 435.831 159.048C439.511 155.105 443.466 154.933 443.547 154.933V210.933ZM488.801 164.28V116.624H432.801V164.28H488.801ZM488.801 116.624C488.801 97.8083 481.696 80.1847 466.393 67.9654C451.994 56.4682 433.584 52.3447 415.289 52.3447V108.345C425.999 108.345 430.344 110.843 431.45 111.726C431.896 112.082 432.058 112.332 432.201 112.653C432.379 113.051 432.801 114.223 432.801 116.624H488.801ZM415.289 52.3447C400.392 52.3447 386.531 54.5392 374.781 59.9379L398.161 110.824C400.214 109.881 405.378 108.345 415.289 108.345V52.3447ZM375.122 59.7842C359.169 66.8574 344.295 81.187 344.295 102.354H400.295C400.295 105.991 398.947 108.884 397.626 110.552C396.477 112.003 395.964 111.801 397.821 110.978L375.122 59.7842ZM344.295 102.354C344.295 112.152 347.727 122.504 355.671 130.492C363.698 138.564 374.22 142.105 384.419 142.105V86.1055C387.065 86.1055 391.525 87.1293 395.379 91.0043C399.149 94.7953 400.295 99.2718 400.295 102.354H344.295ZM384.419 142.105C395.29 142.105 403.161 139.164 409.159 136.165L384.115 86.0771C383.732 86.2684 383.582 86.3296 383.572 86.3337C383.57 86.3343 383.603 86.3209 383.666 86.2997C383.729 86.2783 383.811 86.2523 383.909 86.2257C384.007 86.199 384.107 86.1752 384.206 86.1553C384.305 86.1353 384.389 86.122 384.455 86.1134C384.592 86.0954 384.593 86.1055 384.419 86.1055V142.105ZM409.526 135.978C410.124 135.668 411.009 135.204 411.447 134.976C412.019 134.679 412.479 134.442 412.894 134.236C413.732 133.818 414.169 133.631 414.393 133.544C414.587 133.469 414.488 133.522 414.175 133.588C413.84 133.659 413.413 133.712 412.958 133.712V77.7119C398.373 77.7119 387.13 84.5104 383.748 86.264L409.526 135.978ZM412.958 133.712C412.488 133.712 408.412 133.618 403.962 129.905C398.813 125.61 397.175 119.836 397.175 116.064H453.175C453.175 105.67 449.205 94.7204 439.836 86.9044C431.166 79.6711 420.981 77.7119 412.958 77.7119V133.712ZM397.175 116.064V122.312H453.175V116.064H397.175ZM425.175 94.3125H404.751V150.312H425.175V94.3125ZM404.64 94.3127C388.695 94.3757 372.354 98.2666 359.404 108.655C345.689 119.656 338.793 135.58 338.793 152.809H394.793C394.793 151.656 394.999 151.433 394.856 151.744C394.796 151.875 394.705 152.028 394.595 152.168C394.486 152.307 394.416 152.36 394.444 152.338C394.573 152.234 397.211 150.343 404.861 150.312L404.64 94.3127ZM338.793 152.809C338.793 169.082 345.01 184.319 356.982 195.301C368.75 206.097 384.114 211.026 399.714 211.026V155.026C395.73 155.026 394.633 153.846 394.837 154.034C394.849 154.045 394.883 154.079 394.921 154.133C394.959 154.186 394.972 154.22 394.968 154.209C394.963 154.198 394.923 154.101 394.882 153.892C394.841 153.681 394.793 153.327 394.793 152.809H338.793ZM399.714 211.026C418.337 211.026 439.613 202.993 449.948 183.028L400.216 157.284C401.236 155.313 402.471 154.64 402.523 154.613C402.544 154.603 401.668 155.026 399.714 155.026V211.026ZM429.673 149.918C429.673 155.685 426.881 161.47 422.184 165.115C418.153 168.242 414.624 168.405 413.89 168.405V112.405C405.789 112.405 396.151 114.434 387.853 120.872C378.89 127.827 373.673 138.369 373.673 149.918H429.673ZM413.89 168.405H425.175V112.405H413.89V168.405ZM397.175 140.405V149.545H453.175V140.405H397.175ZM397.175 149.545C397.175 142.788 400.54 137.772 403.795 135.085C406.96 132.473 410.327 131.617 412.958 131.617V187.617C429.963 187.617 453.175 175.392 453.175 149.545H397.175ZM412.958 131.617C415.493 131.617 419.41 132.44 423.13 135.642C427.077 139.038 429.673 144.263 429.673 149.918H373.673C373.673 174.778 395.062 187.617 412.958 187.617V131.617ZM546.516 176.964L531.621 153.254L531.543 153.304L531.464 153.354L546.516 176.964ZM533.459 151.317L517.624 128.224L517.089 128.591L516.572 128.982L533.459 151.317ZM531.967 111.867L514.333 133.616L515.28 134.385L516.291 135.068L531.967 111.867ZM548.288 87.8989L564.91 65.3667L564.817 65.2979L564.723 65.2298L548.288 87.8989ZM438.777 135.835C438.777 157.446 445.396 177.705 460.754 192.437C475.925 206.99 496.038 212.705 516.299 212.705V156.705C506.157 156.705 501.509 153.932 499.52 152.024C497.718 150.296 494.777 146.12 494.777 135.835H438.777ZM516.299 212.705C533.126 212.705 548.833 208.693 561.567 200.574L531.464 153.354C529.277 154.748 524.466 156.705 516.299 156.705V212.705ZM561.41 200.674C573.846 192.862 585.894 178.756 585.894 159.804H529.894C529.894 156.668 530.936 154.543 531.55 153.61C532.137 152.719 532.396 152.767 531.621 153.254L561.41 200.674ZM585.894 159.804C585.894 150.195 582.827 139.498 574.693 131.021C566.391 122.37 555.411 118.747 544.93 118.747V174.747C542.657 174.747 538.159 173.829 534.287 169.794C530.582 165.934 529.894 161.765 529.894 159.804H585.894ZM544.93 118.747C529.733 118.747 519.807 126.728 517.624 128.224L549.294 174.409C549.55 174.234 549.795 174.065 549.997 173.925C550.213 173.775 550.378 173.661 550.541 173.549C550.865 173.326 551.041 173.208 551.155 173.134C551.381 172.987 551.107 173.182 550.524 173.461C549.887 173.765 548.984 174.122 547.877 174.385C546.765 174.65 545.753 174.747 544.93 174.747V118.747ZM516.572 128.982C515.722 129.625 515.353 129.885 515.141 130.025C514.975 130.134 515.157 130 515.598 129.795C516.071 129.576 516.725 129.329 517.509 129.15C518.296 128.97 518.976 128.913 519.47 128.913V184.913C535.437 184.913 545.689 177.172 550.346 173.651L516.572 128.982ZM519.47 128.913C519.698 128.913 521.774 128.957 524.557 130.384C527.555 131.923 529.693 134.206 530.935 136.272C531.999 138.042 532.088 139.104 531.974 138.481C531.868 137.895 531.709 136.53 531.709 134.063H475.709C475.709 142.019 476.421 154.281 482.94 165.126C491.26 178.964 505.249 184.913 519.47 184.913V128.913ZM531.709 134.063V127.908H475.709V134.063H531.709ZM531.709 127.908C531.709 124.452 532.488 125.684 530.487 128.562C529.31 130.255 527.443 132.067 524.9 133.345C522.411 134.596 520.285 134.831 519.19 134.831V78.8311C505.432 78.8311 492.671 84.8535 484.508 96.5949C477.401 106.817 475.709 118.588 475.709 127.908H531.709ZM519.19 134.831C518.642 134.831 517.95 134.773 517.17 134.606C516.39 134.439 515.692 134.201 515.11 133.946C514.01 133.464 513.635 133.051 514.333 133.616L549.601 90.118C543.614 85.2636 533.684 78.8311 519.19 78.8311V134.831ZM516.291 135.068C518.02 136.236 528.654 144.81 544.091 144.81V88.8101C545.107 88.8101 546.197 88.9413 547.28 89.2142C548.341 89.4814 549.139 89.82 549.608 90.0489C550.03 90.2549 550.162 90.3624 549.805 90.1308C549.628 90.0161 549.396 89.8614 549.023 89.6072C548.756 89.4249 548.115 88.9853 547.643 88.6667L516.291 135.068ZM544.091 144.81C567.832 144.81 585.614 126.234 585.614 103.38H529.614C529.614 100.353 530.791 96.4655 533.965 93.2608C537.196 89.9984 541.141 88.8101 544.091 88.8101V144.81ZM585.614 103.38C585.614 85.2661 574.547 72.4758 564.91 65.3667L531.666 110.431C532.274 110.88 531.918 110.781 531.293 109.774C530.596 108.65 529.614 106.425 529.614 103.38H585.614ZM564.723 65.2298C551.388 55.5623 533.746 51.0391 516.486 51.0391V107.039C520.463 107.039 523.961 107.578 526.754 108.372C529.622 109.188 531.244 110.127 531.853 110.568L564.723 65.2298ZM516.486 51.0391C494.772 51.0391 474.724 57.737 460.003 72.2133C445.287 86.6855 438.777 106.108 438.777 125.95H494.777C494.777 118.279 497.127 114.246 499.268 112.141C501.404 110.04 506.21 107.039 516.486 107.039V51.0391ZM438.777 125.95V135.835H494.777V125.95H438.777ZM618.801 84.355V56.355H590.801V84.355H618.801ZM581.963 84.355H609.963V56.355H581.963V84.355ZM600.429 210.933C612.232 210.933 624.684 207.005 634.103 197.17C643.385 187.479 646.801 175.107 646.801 163.721H590.801C590.801 164.272 590.72 161.506 593.66 158.436C596.738 155.223 600.003 154.933 600.429 154.933V210.933ZM646.801 163.721V84.355H590.801V163.721H646.801ZM618.801 112.355H640.251V56.355H618.801V112.355ZM640.251 112.355C665.381 112.355 682.241 91.686 682.241 69.5264H626.241C626.241 67.0203 627.183 63.7549 629.838 60.926C632.581 58.0037 636.448 56.355 640.251 56.355V112.355ZM682.241 69.5264C682.241 47.3668 665.381 26.6978 640.251 26.6978V82.6978C636.448 82.6978 632.581 81.049 629.838 78.1267C627.183 75.2978 626.241 72.0324 626.241 69.5264H682.241ZM640.251 26.6978H560.792V82.6978H640.251V26.6978ZM560.792 26.6978C536.025 26.6978 518.617 47.0769 518.617 69.5264H574.617C574.617 75.3752 569.519 82.6978 560.792 82.6978V26.6978ZM518.617 69.5264C518.617 91.9758 536.025 112.355 560.792 112.355V56.355C569.519 56.355 574.617 63.6775 574.617 69.5264H518.617ZM560.792 112.355H581.963V56.355H560.792V112.355ZM553.963 84.355V163.721H609.963V84.355H553.963ZM553.963 163.721C553.963 175.007 557.275 187.465 566.672 197.241C576.205 207.16 588.748 210.933 600.429 210.933V154.933C600.545 154.933 603.854 155.114 607.046 158.435C610.101 161.614 609.963 164.465 609.963 163.721H553.963ZM691.366 51.0391C670.291 51.0391 650.189 57.5485 635.198 72.0206C620.093 86.6019 613.005 106.545 613.005 127.815H669.005C669.005 119.055 671.71 114.61 674.091 112.311C676.586 109.902 681.665 107.039 691.366 107.039V51.0391ZM613.005 127.815V135.276H669.005V127.815H613.005ZM613.005 135.276C613.005 156.929 619.901 177.175 635.212 191.935C650.374 206.551 670.588 212.705 691.366 212.705V156.705C681.368 156.705 676.402 153.858 674.077 151.618C671.902 149.52 669.005 145.052 669.005 135.276H613.005ZM691.366 212.705C712.097 212.705 732.277 206.522 747.393 191.832C762.629 177.024 769.448 156.751 769.448 135.089H713.448C713.448 145.044 710.52 149.578 708.364 151.673C706.086 153.887 701.225 156.705 691.366 156.705V212.705ZM769.448 135.089V127.535H713.448V135.089H769.448ZM769.448 127.535C769.448 106.374 762.365 86.5217 747.337 71.9972C732.415 57.5749 712.393 51.0391 691.366 51.0391V107.039C700.929 107.039 705.949 109.876 708.419 112.264C710.785 114.55 713.448 118.945 713.448 127.535H769.448ZM691.273 132.966C689.21 132.966 686.211 132.471 683.098 130.691C680.003 128.92 678.113 126.632 677.124 124.98C676.222 123.474 676.132 122.629 676.237 123.142C676.335 123.617 676.516 124.856 676.516 127.069H732.516C732.516 117.705 731.177 106.245 725.17 96.2128C717.974 84.1944 705.624 76.9658 691.273 76.9658V132.966ZM676.516 127.069V136.582H732.516V127.069H676.516ZM676.516 136.582C676.516 138.724 676.339 139.951 676.237 140.444C676.128 140.978 676.201 140.206 677.046 138.779C677.965 137.223 679.78 134.955 682.841 133.161C685.954 131.336 689.033 130.778 691.273 130.778V186.778C706.012 186.778 718.245 179.127 725.249 167.283C731.151 157.301 732.516 145.93 732.516 136.582H676.516ZM691.273 130.778C693.665 130.778 696.739 131.384 699.769 133.161C702.734 134.899 704.495 137.073 705.393 138.559C706.226 139.94 706.311 140.695 706.209 140.221C706.116 139.783 705.937 138.626 705.937 136.582H649.937C649.937 146.188 651.452 157.565 657.452 167.502C664.426 179.054 676.529 186.778 691.273 186.778V130.778ZM705.937 136.582V127.069H649.937V136.582H705.937ZM705.937 127.069C705.937 124.953 706.12 123.783 706.209 123.365C706.306 122.913 706.203 123.742 705.312 125.2C704.346 126.781 702.51 128.976 699.512 130.691C696.479 132.426 693.486 132.966 691.273 132.966V76.9658C676.913 76.9658 664.7 84.2677 657.532 95.9929C651.426 105.983 649.937 117.447 649.937 127.069H705.937ZM826.323 178.27L812.893 153.701L812.521 153.904L812.155 154.119L826.323 178.27ZM813.36 155.7L800.626 130.763L800.312 130.924L800.001 131.092L813.36 155.7ZM780.159 142.364H752.159V142.771L752.171 143.179L780.159 142.364ZM780.159 139.286V111.286H752.159V139.286H780.159ZM780.159 120.354H752.159V148.354H780.159V120.354ZM806.832 120.354V148.354H834.832V120.354H806.832ZM715.787 136.488C715.787 158.063 723.152 178.176 739.069 192.646C754.644 206.805 775.251 212.705 796.573 212.705V156.705C785.16 156.705 779.374 153.604 776.739 151.209C774.447 149.126 771.787 145.13 771.787 136.488H715.787ZM796.573 212.705C811.728 212.705 827.672 209.941 840.492 202.42L812.155 154.119C811.788 154.334 810.357 155.04 807.475 155.669C804.674 156.28 801.011 156.705 796.573 156.705V212.705ZM839.754 202.838C851.929 196.182 865.235 183.258 865.235 162.975H809.235C809.235 161.628 809.451 160.149 809.945 158.664C810.435 157.191 811.102 156 811.744 155.116C812.963 153.438 813.837 153.184 812.893 153.701L839.754 202.838ZM865.235 162.975C865.235 153.368 862.083 142.707 853.68 134.448C845.344 126.256 834.785 123.317 825.484 123.317V179.317C823.364 179.317 818.68 178.569 814.425 174.387C810.102 170.138 809.235 165.307 809.235 162.975H865.235ZM825.484 123.317C818.443 123.317 812.617 124.876 807.609 127.123C805.506 128.067 803.713 129.063 802.738 129.606C801.538 130.274 801.151 130.495 800.626 130.763L826.094 180.637C826.98 180.185 827.765 179.761 828.414 179.404C828.736 179.227 829.037 179.059 829.295 178.916C829.583 178.754 829.754 178.659 829.974 178.537C830.381 178.31 830.575 178.205 830.691 178.144C830.792 178.092 830.721 178.132 830.535 178.215C830.34 178.303 830.018 178.438 829.593 178.585C829.163 178.733 828.675 178.876 828.142 178.997C827.61 179.117 827.098 179.2 826.623 179.252C826.152 179.302 825.766 179.317 825.484 179.317V123.317ZM800.001 131.092C800.236 130.965 800.507 130.838 800.789 130.731C801.068 130.626 801.261 130.576 801.331 130.56C801.458 130.531 800.871 130.685 799.184 130.685V186.685C809.593 186.685 818.577 184.728 826.719 180.308L800.001 131.092ZM799.184 130.685C798.497 130.685 800.954 130.548 803.932 133.195C807.118 136.025 808.089 139.565 808.147 141.549L752.171 143.179C752.508 154.769 757.07 166.469 766.737 175.058C776.198 183.463 788.028 186.685 799.184 186.685V130.685ZM808.159 142.364V139.286H752.159V142.364H808.159ZM780.159 167.286H822.966V111.286H780.159V167.286ZM822.966 167.286C831.443 167.286 844.796 165.942 855.438 155.841C866.455 145.385 868.126 131.776 868.126 122.965H812.126C812.126 125.905 811.373 120.457 816.887 115.224C819.464 112.778 822.028 111.779 823.291 111.425C824.362 111.126 824.481 111.286 822.966 111.286V167.286ZM868.126 122.965C868.126 81.0679 834.427 51.0391 792.936 51.0391V107.039C806.656 107.039 812.126 115.061 812.126 122.965H868.126ZM792.936 51.0391C772.012 51.0391 752.233 57.8386 737.569 72.2627C722.859 86.7332 715.787 106.435 715.787 127.442H771.787C771.787 119.071 774.414 114.572 776.84 112.185C779.313 109.752 784.108 107.039 792.936 107.039V51.0391ZM715.787 127.442V136.488H771.787V127.442H715.787ZM808.159 120.354V120.167H752.159V120.354H808.159ZM808.159 120.167C808.159 120.278 808.127 123.578 804.933 127.307C801.255 131.602 796.458 132.873 793.682 132.873V76.8726C782.232 76.8726 770.674 81.2207 762.402 90.8781C754.615 99.9696 752.159 110.917 752.159 120.167H808.159ZM793.682 132.873C789.863 132.873 785.238 131.13 781.964 127.307C779.03 123.882 778.832 120.78 778.832 120.167H834.832C834.832 110.416 832.022 99.6657 824.495 90.8781C816.628 81.6926 805.428 76.8726 793.682 76.8726V132.873ZM778.832 120.167V120.354H834.832V120.167H778.832ZM806.832 92.354H780.159V148.354H806.832V92.354Z" fill="#FFB58A"/>
</g>
<g filter="url(#filter1_d_2358_1177)">
<path d="M93.2266 182.933C104.604 182.933 111.599 175.658 111.599 163.721V84.355H133.049C141.07 84.355 147.039 77.9199 147.039 69.5264C147.039 61.1328 141.07 54.6978 133.049 54.6978H53.5903C45.5698 54.6978 39.4146 61.2261 39.4146 69.5264C39.4146 77.8267 45.5698 84.355 53.5903 84.355H74.7607V163.721C74.7607 175.751 81.6621 182.933 93.2266 182.933ZM147.139 55.9102C147.139 65.6094 154.787 72.4175 165.698 72.4175C176.517 72.4175 184.164 65.6094 184.164 55.9102C184.164 46.3975 176.517 39.5894 165.698 39.5894C154.787 39.5894 147.139 46.3975 147.139 55.9102ZM183.511 163.441V100.489C183.511 87.8057 177.263 80.9976 165.698 80.9976C154.134 80.9976 147.885 87.8057 147.885 100.489V163.441C147.885 176.125 154.134 182.933 165.698 182.933C177.263 182.933 183.511 176.125 183.511 163.441ZM192.006 135.835C192.006 167.731 211.124 184.705 241.528 184.705C254.025 184.705 264.283 181.72 271.744 176.964C279.019 172.394 283.122 166.052 283.122 159.804C283.122 152.156 278.366 146.747 270.159 146.747C264.936 146.747 261.952 149.079 258.688 151.317C254.864 154.208 250.947 156.913 244.699 156.913C232.295 156.913 228.937 147.959 228.937 134.063V127.908C228.937 115.131 233.88 106.831 244.419 106.831C249.921 106.831 253.745 109.069 257.196 111.867C260.646 114.199 264.004 116.81 269.32 116.81C277.34 116.81 282.843 111.028 282.843 103.38C282.843 97.5049 279.205 92.0957 273.516 87.8989C266.055 82.4897 254.584 79.0391 241.714 79.0391C209.725 79.0391 192.006 98.4375 192.006 125.95V135.835ZM325.657 182.933C337.035 182.933 344.03 175.658 344.03 163.721V84.355H365.48C373.5 84.355 379.469 77.9199 379.469 69.5264C379.469 61.1328 373.5 54.6978 365.48 54.6978H286.021C278 54.6978 271.845 61.2261 271.845 69.5264C271.845 77.8267 278 84.355 286.021 84.355H307.191V163.721C307.191 175.751 314.093 182.933 325.657 182.933ZM425.082 170.156H426.854V170.715C428.439 178.549 434.688 182.933 443.547 182.933C454.552 182.933 460.801 176.404 460.801 164.28V116.624C460.801 93.5879 444.294 80.3447 415.289 80.3447C402.885 80.3447 393.373 82.21 386.471 85.3809C376.586 89.7642 372.295 96.106 372.295 102.354C372.295 109.069 376.865 114.105 384.419 114.105C389.735 114.105 393.279 112.8 396.637 111.121C401.673 108.51 406.523 105.712 412.958 105.712C420.512 105.712 425.175 109.442 425.175 116.064V122.312H404.751C381.155 122.406 366.793 133.877 366.793 152.809C366.793 170.809 380.129 183.026 399.714 183.026C411.372 183.026 420.978 178.083 425.082 170.156ZM401.673 149.918C401.673 144.136 406.523 140.405 413.89 140.405H425.175V149.545C425.175 155.141 419.766 159.617 412.958 159.617C406.429 159.617 401.673 155.514 401.673 149.918ZM466.777 135.835C466.777 167.731 485.896 184.705 516.299 184.705C528.796 184.705 539.055 181.72 546.516 176.964C553.79 172.394 557.894 166.052 557.894 159.804C557.894 152.156 553.137 146.747 544.93 146.747C539.708 146.747 536.723 149.079 533.459 151.317C529.635 154.208 525.718 156.913 519.47 156.913C507.066 156.913 503.709 147.959 503.709 134.063V127.908C503.709 115.131 508.652 106.831 519.19 106.831C524.693 106.831 528.516 109.069 531.967 111.867C535.418 114.199 538.775 116.81 544.091 116.81C552.112 116.81 557.614 111.028 557.614 103.38C557.614 97.5049 553.977 92.0957 548.288 87.8989C540.827 82.4897 529.356 79.0391 516.486 79.0391C484.497 79.0391 466.777 98.4375 466.777 125.95V135.835ZM600.429 182.933C611.806 182.933 618.801 175.658 618.801 163.721V84.355H640.251C648.272 84.355 654.241 77.9199 654.241 69.5264C654.241 61.1328 648.272 54.6978 640.251 54.6978H560.792C552.772 54.6978 546.617 61.2261 546.617 69.5264C546.617 77.8267 552.772 84.355 560.792 84.355H581.963V163.721C581.963 175.751 588.864 182.933 600.429 182.933ZM691.366 79.0391C660.59 79.0391 641.005 97.7847 641.005 127.815V135.276C641.005 166.705 660.59 184.705 691.366 184.705C721.956 184.705 741.448 166.705 741.448 135.089V127.535C741.448 97.7847 721.956 79.0391 691.366 79.0391ZM691.273 104.966C699.946 104.966 704.516 112.613 704.516 127.069V136.582C704.516 150.851 699.946 158.778 691.273 158.778C682.786 158.778 677.937 150.851 677.937 136.582V127.069C677.937 112.613 682.786 104.966 691.273 104.966ZM743.787 136.488C743.787 166.705 763.838 184.705 796.573 184.705C808.883 184.705 819.329 182.373 826.323 178.27C833.318 174.446 837.235 169.316 837.235 162.975C837.235 155.7 832.665 151.317 825.484 151.317C820.168 151.317 817.743 153.462 813.36 155.7C810.096 157.472 805.899 158.685 799.184 158.685C787.34 158.685 780.439 151.97 780.159 142.364V139.286H822.966C835.276 139.286 840.126 134.716 840.126 122.965C840.126 98.0645 820.541 79.0391 792.936 79.0391C763.185 79.0391 743.787 98.0645 743.787 127.442V136.488ZM780.159 120.354V120.167C780.159 111.028 785.008 104.873 793.682 104.873C801.609 104.873 806.832 111.028 806.832 120.167V120.354H780.159Z" fill="#FF5D00"/>
<path d="M111.599 84.355V62.355H89.5991V84.355H111.599ZM74.7607 84.355H96.7607V62.355H74.7607V84.355ZM93.2266 204.933C103.72 204.933 114.487 201.457 122.568 193.02C130.541 184.696 133.599 173.946 133.599 163.721H89.5991C89.5991 165.433 89.1604 164.289 90.7912 162.586C91.5398 161.805 92.361 161.322 92.9927 161.079C93.5794 160.853 93.7341 160.933 93.2266 160.933V204.933ZM133.599 163.721V84.355H89.5991V163.721H133.599ZM111.599 106.355H133.049V62.355H111.599V106.355ZM133.049 106.355C154.513 106.355 169.039 88.7361 169.039 69.5264H125.039C125.039 68.4566 125.459 66.6854 127.011 65.0322C128.631 63.3057 130.92 62.355 133.049 62.355V106.355ZM169.039 69.5264C169.039 50.3166 154.513 32.6978 133.049 32.6978V76.6978C130.92 76.6978 128.631 75.7471 127.011 74.0205C125.459 72.3674 125.039 70.5961 125.039 69.5264H169.039ZM133.049 32.6978H53.5903V76.6978H133.049V32.6978ZM53.5903 32.6978C32.4116 32.6978 17.4146 50.1089 17.4146 69.5264H61.4146C61.4146 70.8833 60.8773 72.6471 59.4291 74.1684C57.9363 75.7365 55.7722 76.6978 53.5903 76.6978V32.6978ZM17.4146 69.5264C17.4146 88.9438 32.4116 106.355 53.5903 106.355V62.355C55.7722 62.355 57.9363 63.3162 59.4291 64.8843C60.8773 66.4056 61.4146 68.1694 61.4146 69.5264H17.4146ZM53.5903 106.355H74.7607V62.355H53.5903V106.355ZM52.7607 84.355V163.721H96.7607V84.355H52.7607ZM52.7607 163.721C52.7607 173.878 55.733 184.695 63.7954 193.083C71.9657 201.584 82.8096 204.933 93.2266 204.933V160.933C92.5983 160.933 92.691 160.835 93.2566 161.049C93.8753 161.284 94.7282 161.771 95.5185 162.593C96.2986 163.405 96.6576 164.167 96.7849 164.531C96.8957 164.848 96.7607 164.649 96.7607 163.721H52.7607ZM125.139 55.9102C125.139 66.8903 129.625 77.0497 137.704 84.2376C145.6 91.2623 155.7 94.4175 165.698 94.4175V50.4175C164.785 50.4175 165.606 50.1686 166.95 51.3645C167.605 51.9473 168.205 52.7349 168.618 53.6666C169.031 54.5994 169.139 55.4071 169.139 55.9102H125.139ZM165.698 94.4175C175.695 94.4175 185.774 91.2353 193.641 84.2117C201.684 77.0302 206.164 66.8858 206.164 55.9102H162.164C162.164 55.4071 162.272 54.6044 162.682 53.6789C163.091 52.7551 163.684 51.9723 164.336 51.3904C165.674 50.1956 166.52 50.4175 165.698 50.4175V94.4175ZM206.164 55.9102C206.164 31.8136 186.081 17.5894 165.698 17.5894V61.5894C166.522 61.5894 165.714 61.8144 164.401 60.6514C163.759 60.0829 163.153 59.3004 162.726 58.3478C162.296 57.3899 162.164 56.5198 162.164 55.9102H206.164ZM165.698 17.5894C145.3 17.5894 125.139 31.7449 125.139 55.9102H169.139C169.139 56.5198 169.007 57.3949 168.574 58.3601C168.142 59.3207 167.53 60.1077 166.885 60.6772C165.566 61.8412 164.784 61.5894 165.698 61.5894V17.5894ZM205.511 163.441V100.489H161.511V163.441H205.511ZM205.511 100.489C205.511 90.8283 203.138 79.842 195.173 71.1368C186.913 62.1084 175.84 58.9976 165.698 58.9976V102.998C166.466 102.998 166.309 103.113 165.579 102.838C164.755 102.526 163.669 101.885 162.71 100.837C160.761 98.7071 161.511 97.4666 161.511 100.489H205.511ZM165.698 58.9976C155.556 58.9976 144.484 62.1084 136.223 71.1368C128.259 79.842 125.885 90.8283 125.885 100.489H169.885C169.885 97.4666 170.636 98.7071 168.687 100.837C167.728 101.885 166.642 102.526 165.817 102.838C165.088 103.113 164.931 102.998 165.698 102.998V58.9976ZM125.885 100.489V163.441H169.885V100.489H125.885ZM125.885 163.441C125.885 173.102 128.259 184.088 136.223 192.793C144.484 201.822 155.556 204.933 165.698 204.933V160.933C164.931 160.933 165.088 160.817 165.817 161.093C166.642 161.404 167.728 162.045 168.687 163.093C170.636 165.223 169.885 166.464 169.885 163.441H125.885ZM165.698 204.933C175.84 204.933 186.913 201.822 195.173 192.793C203.138 184.088 205.511 173.102 205.511 163.441H161.511C161.511 166.464 160.761 165.223 162.71 163.093C163.669 162.045 164.755 161.404 165.579 161.093C166.309 160.817 166.466 160.933 165.698 160.933V204.933ZM271.744 176.964L260.042 158.335L259.98 158.374L259.918 158.413L271.744 176.964ZM258.688 151.317L246.246 133.173L245.826 133.461L245.419 133.768L258.688 151.317ZM257.196 111.867L243.34 128.956L244.084 129.56L244.879 130.096L257.196 111.867ZM273.516 87.8989L286.577 70.195L286.503 70.1409L286.43 70.0875L273.516 87.8989ZM170.006 135.835C170.006 156.233 176.23 174.769 190.136 188.107C203.895 201.305 222.351 206.705 241.528 206.705V162.705C230.301 162.705 223.996 159.617 220.595 156.354C217.34 153.232 214.006 147.334 214.006 135.835H170.006ZM241.528 206.705C257.427 206.705 271.966 202.913 283.571 195.515L259.918 158.413C256.601 160.528 250.623 162.705 241.528 162.705V206.705ZM283.447 195.593C294.777 188.476 305.122 176.034 305.122 159.804H261.122C261.122 158.01 261.721 157.014 261.789 156.911C261.836 156.84 261.43 157.463 260.042 158.335L283.447 195.593ZM305.122 159.804C305.122 151.435 302.458 142.33 295.592 135.175C288.595 127.883 279.273 124.747 270.159 124.747V168.747C269.252 168.747 266.412 168.316 263.845 165.64C261.408 163.101 261.122 160.525 261.122 159.804H305.122ZM270.159 124.747C257.099 124.747 248.66 131.517 246.246 133.173L271.129 169.461C271.374 169.293 271.61 169.13 271.812 168.99C272.026 168.843 272.198 168.723 272.37 168.605C272.711 168.371 272.936 168.219 273.114 168.104C273.467 167.874 273.432 167.92 273.167 168.046C272.861 168.192 272.358 168.396 271.717 168.548C271.071 168.702 270.526 168.747 270.159 168.747V124.747ZM245.419 133.768C244.547 134.428 244.05 134.785 243.669 135.036C243.324 135.264 243.243 135.289 243.35 135.239C243.482 135.178 243.74 135.076 244.076 134.999C244.415 134.921 244.646 134.913 244.699 134.913V178.913C258.583 178.913 267.478 172.251 271.956 168.865L245.419 133.768ZM244.699 134.913C244.213 134.913 245.301 134.827 247.046 135.723C247.91 136.166 248.744 136.755 249.482 137.462C250.209 138.16 250.706 138.839 251.022 139.364C251.601 140.328 251.498 140.644 251.3 139.556C251.107 138.496 250.937 136.746 250.937 134.063H206.937C206.937 141.803 207.677 152.662 213.311 162.034C220.36 173.759 232.196 178.913 244.699 178.913V134.913ZM250.937 134.063V127.908H206.937V134.063H250.937ZM250.937 127.908C250.937 126.079 251.119 124.963 251.248 124.438C251.377 123.909 251.369 124.303 250.789 125.137C250.138 126.074 249.015 127.19 247.434 127.984C245.895 128.758 244.714 128.831 244.419 128.831V84.8311C232.48 84.8311 221.624 90.0076 214.663 100.02C208.532 108.838 206.937 119.216 206.937 127.908H250.937ZM244.419 128.831C244.283 128.831 244.011 128.815 243.652 128.738C243.294 128.662 242.981 128.553 242.747 128.45C242.524 128.353 242.447 128.294 242.542 128.355C242.648 128.424 242.895 128.595 243.34 128.956L271.051 94.7786C265.608 90.3648 256.986 84.8311 244.419 84.8311V128.831ZM244.879 130.096C246.977 131.514 256.052 138.81 269.32 138.81V94.8101C269.833 94.8101 270.431 94.8782 271.043 95.0323C271.637 95.182 272.045 95.3626 272.206 95.4412C272.33 95.5019 272.238 95.4695 271.769 95.1649C271.535 95.0134 271.26 94.829 270.874 94.5662C270.675 94.4308 270.491 94.3048 270.253 94.1421C270.03 93.9895 269.777 93.8167 269.512 93.6382L244.879 130.096ZM269.32 138.81C289.692 138.81 304.843 122.975 304.843 103.38H260.843C260.843 101.821 261.473 99.4861 263.457 97.4827C265.486 95.434 267.861 94.8101 269.32 94.8101V138.81ZM304.843 103.38C304.843 87.8887 295.368 76.6801 286.577 70.195L260.456 105.603C261.544 106.405 261.763 106.842 261.619 106.61C261.531 106.468 261.333 106.111 261.156 105.535C260.974 104.945 260.843 104.209 260.843 103.38H304.843ZM286.43 70.0875C274.354 61.3325 258.034 57.0391 241.714 57.0391V101.039C251.134 101.039 257.757 103.647 260.603 105.71L286.43 70.0875ZM241.714 57.0391C221.226 57.0391 202.811 63.3409 189.438 76.4913C176.069 89.6384 170.006 107.412 170.006 125.95H214.006C214.006 116.975 216.802 111.293 220.29 107.863C223.774 104.436 230.213 101.039 241.714 101.039V57.0391ZM170.006 125.95V135.835H214.006V125.95H170.006ZM344.03 84.355V62.355H322.03V84.355H344.03ZM307.191 84.355H329.191V62.355H307.191V84.355ZM325.657 204.933C336.15 204.933 346.918 201.457 354.999 193.02C362.971 184.696 366.03 173.946 366.03 163.721H322.03C322.03 165.433 321.591 164.289 323.222 162.586C323.97 161.805 324.792 161.322 325.423 161.079C326.01 160.853 326.165 160.933 325.657 160.933V204.933ZM366.03 163.721V84.355H322.03V163.721H366.03ZM344.03 106.355H365.48V62.355H344.03V106.355ZM365.48 106.355C386.943 106.355 401.469 88.7361 401.469 69.5264H357.469C357.469 68.4566 357.89 66.6854 359.441 65.0322C361.062 63.3057 363.351 62.355 365.48 62.355V106.355ZM401.469 69.5264C401.469 50.3166 386.943 32.6978 365.48 32.6978V76.6978C363.351 76.6978 361.062 75.7471 359.441 74.0205C357.89 72.3674 357.469 70.5961 357.469 69.5264H401.469ZM365.48 32.6978H286.021V76.6978H365.48V32.6978ZM286.021 32.6978C264.842 32.6978 249.845 50.1089 249.845 69.5264H293.845C293.845 70.8833 293.308 72.6471 291.86 74.1684C290.367 75.7365 288.203 76.6978 286.021 76.6978V32.6978ZM249.845 69.5264C249.845 88.9438 264.842 106.355 286.021 106.355V62.355C288.203 62.355 290.367 63.3162 291.86 64.8843C293.308 66.4056 293.845 68.1694 293.845 69.5264H249.845ZM286.021 106.355H307.191V62.355H286.021V106.355ZM285.191 84.355V163.721H329.191V84.355H285.191ZM285.191 163.721C285.191 173.878 288.164 184.695 296.226 193.083C304.396 201.584 315.24 204.933 325.657 204.933V160.933C325.029 160.933 325.122 160.835 325.687 161.049C326.306 161.284 327.159 161.771 327.949 162.593C328.729 163.405 329.088 164.167 329.215 164.531C329.326 164.848 329.191 164.649 329.191 163.721H285.191ZM425.082 170.156V148.156H411.697L405.544 160.042L425.082 170.156ZM426.854 170.156H448.854V148.156H426.854V170.156ZM426.854 170.715H404.854V172.919L405.291 175.079L426.854 170.715ZM386.471 85.3809L395.389 105.493L395.523 105.433L395.656 105.372L386.471 85.3809ZM396.637 111.121L406.475 130.798L406.62 130.726L406.764 130.652L396.637 111.121ZM425.175 122.312V144.312H447.175V122.312H425.175ZM404.751 122.312V100.312H404.707L404.664 100.313L404.751 122.312ZM425.175 140.405H447.175V118.405H425.175V140.405ZM425.082 192.156H426.854V148.156H425.082V192.156ZM404.854 170.156V170.715H448.854V170.156H404.854ZM405.291 175.079C407.1 184.017 411.916 192.042 419.576 197.585C426.988 202.948 435.57 204.933 443.547 204.933V160.933C442.665 160.933 443.693 160.725 445.369 161.938C446.202 162.541 446.957 163.338 447.531 164.253C448.096 165.155 448.33 165.924 448.416 166.351L405.291 175.079ZM443.547 204.933C453.437 204.933 464.247 201.883 472.384 193.164C480.305 184.678 482.801 173.902 482.801 164.28H438.801C438.801 166.782 438.173 165.333 440.218 163.142C441.2 162.089 442.3 161.447 443.149 161.129C443.916 160.84 444.154 160.933 443.547 160.933V204.933ZM482.801 164.28V116.624H438.801V164.28H482.801ZM482.801 116.624C482.801 99.372 476.334 83.5814 462.649 72.654C449.675 62.2941 432.771 58.3447 415.289 58.3447V102.345C426.812 102.345 432.664 105.017 435.194 107.037C437.014 108.491 438.801 110.839 438.801 116.624H482.801ZM415.289 58.3447C400.927 58.3447 387.997 60.4687 377.286 65.39L395.656 105.372C398.748 103.951 404.844 102.345 415.289 102.345V58.3447ZM377.554 65.2692C362.901 71.766 350.295 84.384 350.295 102.354H394.295C394.295 103.344 394.12 104.304 393.813 105.154C393.509 105.996 393.143 106.549 392.922 106.827C392.514 107.343 392.871 106.609 395.389 105.493L377.554 65.2692ZM350.295 102.354C350.295 110.772 353.237 119.535 359.925 126.261C366.679 133.053 375.596 136.105 384.419 136.105V92.1055C385.689 92.1055 388.544 92.6401 391.124 95.2351C393.639 97.7641 394.295 100.652 394.295 102.354H350.295ZM384.419 136.105C394.1 136.105 401.043 133.515 406.475 130.798L386.798 91.4437C385.863 91.9111 385.56 91.9946 385.485 92.0151C385.464 92.0207 385.196 92.1055 384.419 92.1055V136.105ZM406.764 130.652C408.316 129.847 409.162 129.391 410.218 128.865C411.147 128.402 411.765 128.128 412.225 127.95C412.661 127.781 412.875 127.73 412.937 127.717C412.969 127.71 412.978 127.71 412.969 127.711C412.96 127.712 412.954 127.712 412.958 127.712V83.7119C400.12 83.7119 390.246 89.6531 386.51 91.5905L406.764 130.652ZM412.958 127.712C413.398 127.712 410.85 127.838 407.806 125.298C406.239 123.991 404.963 122.296 404.143 120.402C403.345 118.563 403.175 117.001 403.175 116.064H447.175C447.175 107.188 443.806 98.03 435.992 91.5116C428.728 85.4511 420.071 83.7119 412.958 83.7119V127.712ZM403.175 116.064V122.312H447.175V116.064H403.175ZM425.175 100.312H404.751V144.312H425.175V100.312ZM404.664 100.313C389.608 100.372 374.735 104.049 363.158 113.335C350.981 123.103 344.793 137.243 344.793 152.809H388.793C388.793 149.443 389.786 148.382 390.689 147.657C392.192 146.452 396.298 144.346 404.838 144.312L404.664 100.313ZM344.793 152.809C344.793 167.523 350.392 181.114 361.038 190.879C371.524 200.499 385.359 205.026 399.714 205.026V161.026C394.485 161.026 391.86 159.445 390.781 158.455C389.862 157.612 388.793 156.094 388.793 152.809H344.793ZM399.714 205.026C416.844 205.026 435.62 197.655 444.619 180.269L405.544 160.042C405.906 159.343 406.142 159.504 405.246 159.96C404.326 160.429 402.499 161.026 399.714 161.026V205.026ZM423.673 149.918C423.673 151.609 423.302 153.631 422.302 155.672C421.304 157.708 419.918 159.278 418.506 160.374C417.132 161.44 415.887 161.947 415.102 162.178C414.704 162.296 414.396 162.352 414.198 162.378C414 162.405 413.895 162.405 413.89 162.405V118.405C406.736 118.405 398.508 120.199 391.532 125.612C384.032 131.432 379.673 140.224 379.673 149.918H423.673ZM413.89 162.405H425.175V118.405H413.89V162.405ZM403.175 140.405V149.545H447.175V140.405H403.175ZM403.175 149.545C403.175 144.835 405.529 141.434 407.615 139.713C409.629 138.05 411.62 137.617 412.958 137.617V181.617C427.778 181.617 447.175 171.052 447.175 149.545H403.175ZM412.958 137.617C414.25 137.617 416.723 138.044 419.216 140.19C421.888 142.489 423.673 146.074 423.673 149.918H379.673C379.673 170.65 397.498 181.617 412.958 181.617V137.617ZM546.516 176.964L534.813 158.335L534.751 158.374L534.69 158.413L546.516 176.964ZM533.459 151.317L521.018 133.173L520.597 133.461L520.191 133.768L533.459 151.317ZM531.967 111.867L518.111 128.956L518.856 129.56L519.65 130.096L531.967 111.867ZM548.288 87.8989L561.348 70.195L561.275 70.1409L561.201 70.0875L548.288 87.8989ZM444.777 135.835C444.777 156.233 451.002 174.769 464.907 188.107C478.666 201.305 497.122 206.705 516.299 206.705V162.705C505.073 162.705 498.768 159.617 495.366 156.354C492.112 153.232 488.777 147.334 488.777 135.835H444.777ZM516.299 206.705C532.198 206.705 546.737 202.913 558.342 195.515L534.69 158.413C531.372 160.528 525.394 162.705 516.299 162.705V206.705ZM558.219 195.593C569.548 188.476 579.894 176.034 579.894 159.804H535.894C535.894 158.01 536.493 157.014 536.561 156.911C536.607 156.84 536.201 157.463 534.813 158.335L558.219 195.593ZM579.894 159.804C579.894 151.435 577.229 142.33 570.363 135.175C563.366 127.883 554.045 124.747 544.93 124.747V168.747C544.023 168.747 541.184 168.316 538.616 165.64C536.18 163.101 535.894 160.525 535.894 159.804H579.894ZM544.93 124.747C531.871 124.747 523.432 131.517 521.018 133.173L545.901 169.461C546.146 169.293 546.381 169.13 546.584 168.99C546.797 168.843 546.97 168.723 547.141 168.605C547.482 168.371 547.708 168.219 547.885 168.104C548.238 167.874 548.203 167.92 547.939 168.046C547.632 168.192 547.129 168.396 546.488 168.548C545.843 168.702 545.297 168.747 544.93 168.747V124.747ZM520.191 133.768C519.318 134.428 518.822 134.785 518.44 135.036C518.095 135.264 518.015 135.289 518.122 135.239C518.253 135.178 518.511 135.076 518.847 134.999C519.186 134.921 519.417 134.913 519.47 134.913V178.913C533.355 178.913 542.249 172.251 546.728 168.865L520.191 133.768ZM519.47 134.913C518.985 134.913 520.073 134.827 521.818 135.723C522.681 136.166 523.515 136.755 524.253 137.462C524.981 138.16 525.477 138.839 525.793 139.364C526.373 140.328 526.269 140.644 526.071 139.556C525.878 138.496 525.709 136.746 525.709 134.063H481.709C481.709 141.803 482.448 152.662 488.083 162.034C495.132 173.759 506.967 178.913 519.47 178.913V134.913ZM525.709 134.063V127.908H481.709V134.063H525.709ZM525.709 127.908C525.709 126.079 525.891 124.963 526.019 124.438C526.148 123.909 526.141 124.303 525.561 125.137C524.909 126.074 523.786 127.19 522.205 127.984C520.667 128.758 519.485 128.831 519.19 128.831V84.8311C507.251 84.8311 496.395 90.0076 489.434 100.02C483.303 108.838 481.709 119.216 481.709 127.908H525.709ZM519.19 128.831C519.054 128.831 518.783 128.815 518.424 128.738C518.066 128.662 517.753 128.553 517.518 128.45C517.296 128.353 517.219 128.294 517.313 128.355C517.42 128.424 517.666 128.595 518.111 128.956L545.823 94.7786C540.379 90.3648 531.758 84.8311 519.19 84.8311V128.831ZM519.65 130.096C521.748 131.514 530.823 138.81 544.091 138.81V94.8101C544.604 94.8101 545.202 94.8782 545.814 95.0323C546.408 95.182 546.816 95.3626 546.977 95.4412C547.102 95.5019 547.01 95.4695 546.54 95.1649C546.306 95.0134 546.031 94.829 545.645 94.5662C545.447 94.4308 545.263 94.3048 545.025 94.1421C544.801 93.9895 544.548 93.8167 544.284 93.6382L519.65 130.096ZM544.091 138.81C564.464 138.81 579.614 122.975 579.614 103.38H535.614C535.614 101.821 536.244 99.4861 538.228 97.4827C540.257 95.434 542.632 94.8101 544.091 94.8101V138.81ZM579.614 103.38C579.614 87.8887 570.139 76.6801 561.348 70.195L535.228 105.603C536.315 106.405 536.535 106.842 536.391 106.61C536.303 106.468 536.104 106.111 535.927 105.535C535.746 104.945 535.614 104.209 535.614 103.38H579.614ZM561.201 70.0875C549.125 61.3325 532.806 57.0391 516.486 57.0391V101.039C525.906 101.039 532.528 103.647 535.374 105.71L561.201 70.0875ZM516.486 57.0391C495.998 57.0391 477.582 63.3409 464.21 76.4913C450.841 89.6384 444.777 107.412 444.777 125.95H488.777C488.777 116.975 491.573 111.293 495.061 107.863C498.546 104.436 504.984 101.039 516.486 101.039V57.0391ZM444.777 125.95V135.835H488.777V125.95H444.777ZM618.801 84.355V62.355H596.801V84.355H618.801ZM581.963 84.355H603.963V62.355H581.963V84.355ZM600.429 204.933C610.922 204.933 621.689 201.457 629.77 193.02C637.743 184.696 640.801 173.946 640.801 163.721H596.801C596.801 165.433 596.362 164.289 597.993 162.586C598.742 161.805 599.563 161.322 600.195 161.079C600.781 160.853 600.936 160.933 600.429 160.933V204.933ZM640.801 163.721V84.355H596.801V163.721H640.801ZM618.801 106.355H640.251V62.355H618.801V106.355ZM640.251 106.355C661.715 106.355 676.241 88.7361 676.241 69.5264H632.241C632.241 68.4566 632.661 66.6854 634.213 65.0322C635.833 63.3057 638.122 62.355 640.251 62.355V106.355ZM676.241 69.5264C676.241 50.3166 661.715 32.6978 640.251 32.6978V76.6978C638.122 76.6978 635.833 75.7471 634.213 74.0205C632.661 72.3674 632.241 70.5961 632.241 69.5264H676.241ZM640.251 32.6978H560.792V76.6978H640.251V32.6978ZM560.792 32.6978C539.614 32.6978 524.617 50.1089 524.617 69.5264H568.617C568.617 70.8833 568.079 72.6471 566.631 74.1684C565.138 75.7365 562.974 76.6978 560.792 76.6978V32.6978ZM524.617 69.5264C524.617 88.9438 539.614 106.355 560.792 106.355V62.355C562.974 62.355 565.138 63.3162 566.631 64.8843C568.079 66.4056 568.617 68.1694 568.617 69.5264H524.617ZM560.792 106.355H581.963V62.355H560.792V106.355ZM559.963 84.355V163.721H603.963V84.355H559.963ZM559.963 163.721C559.963 173.878 562.935 184.695 570.997 193.083C579.168 201.584 590.012 204.933 600.429 204.933V160.933C599.8 160.933 599.893 160.835 600.459 161.049C601.077 161.284 601.93 161.771 602.721 162.593C603.501 163.405 603.86 164.167 603.987 164.531C604.098 164.848 603.963 164.649 603.963 163.721H559.963ZM691.366 57.0391C671.51 57.0391 653.018 63.1578 639.365 76.3374C625.623 89.6028 619.005 107.885 619.005 127.815H663.005C663.005 117.715 666.179 111.609 669.924 107.994C673.758 104.293 680.446 101.039 691.366 101.039V57.0391ZM619.005 127.815V135.276H663.005V127.815H619.005ZM619.005 135.276C619.005 155.657 625.472 174.212 639.376 187.615C653.162 200.905 671.743 206.705 691.366 206.705V162.705C680.213 162.705 673.613 159.504 669.913 155.937C666.33 152.483 663.005 146.324 663.005 135.276H619.005ZM691.366 206.705C710.932 206.705 729.471 200.883 743.211 187.53C757.046 174.084 763.448 155.496 763.448 135.089H719.448C719.448 146.298 716.103 152.518 712.545 155.976C708.892 159.527 702.39 162.705 691.366 162.705V206.705ZM763.448 135.089V127.535H719.448V135.089H763.448ZM763.448 127.535C763.448 107.721 756.839 89.5248 743.167 76.3115C729.579 63.1786 711.165 57.0391 691.366 57.0391V101.039C702.158 101.039 708.784 104.272 712.589 107.95C716.311 111.547 719.448 117.598 719.448 127.535H763.448ZM691.273 126.966C690.117 126.966 688.17 126.68 686.077 125.483C683.998 124.294 682.81 122.797 682.272 121.898C681.802 121.113 681.912 120.944 682.115 121.937C682.312 122.899 682.516 124.556 682.516 127.069H726.516C726.516 118.163 725.219 107.974 720.022 99.295C713.891 89.0551 703.478 82.9658 691.273 82.9658V126.966ZM682.516 127.069V136.582H726.516V127.069H682.516ZM682.516 136.582C682.516 139.029 682.315 140.673 682.115 141.65C681.908 142.659 681.785 142.551 682.21 141.833C682.694 141.014 683.823 139.54 685.875 138.337C687.968 137.11 689.978 136.778 691.273 136.778V180.778C703.783 180.778 714.104 174.342 720.084 164.229C725.199 155.579 726.516 145.456 726.516 136.582H682.516ZM691.273 136.778C692.697 136.778 694.707 137.148 696.735 138.337C698.711 139.495 699.794 140.896 700.256 141.66C700.667 142.341 700.547 142.436 700.342 141.475C700.142 140.541 699.937 138.952 699.937 136.582H655.937C655.937 145.658 657.387 155.786 662.588 164.401C668.555 174.284 678.779 180.778 691.273 180.778V136.778ZM699.937 136.582V127.069H655.937V136.582H699.937ZM699.937 127.069C699.937 124.632 700.146 123.03 700.342 122.112C700.543 121.168 700.65 121.324 700.193 122.071C699.677 122.915 698.536 124.337 696.533 125.483C694.503 126.644 692.557 126.966 691.273 126.966V82.9658C679.081 82.9658 668.77 89.1127 662.651 99.1222C657.366 107.768 655.937 117.96 655.937 127.069H699.937ZM826.323 178.27L815.771 158.966L815.478 159.125L815.191 159.294L826.323 178.27ZM813.36 155.7L803.355 136.107L803.108 136.233L802.864 136.365L813.36 155.7ZM780.159 142.364H758.159V142.684L758.168 143.004L780.159 142.364ZM780.159 139.286V117.286H758.159V139.286H780.159ZM780.159 120.354H758.159V142.354H780.159V120.354ZM806.832 120.354V142.354H828.832V120.354H806.832ZM721.787 136.488C721.787 156.678 728.648 175.063 743.105 188.206C757.294 201.105 776.313 206.705 796.573 206.705V162.705C784.098 162.705 776.724 159.304 772.703 155.649C768.951 152.238 765.787 146.516 765.787 136.488H721.787ZM796.573 206.705C811.119 206.705 825.884 204.034 837.456 197.245L815.191 159.294C812.773 160.712 806.648 162.705 796.573 162.705V206.705ZM836.876 197.573C847.941 191.525 859.235 180.27 859.235 162.975H815.235C815.235 162.256 815.352 161.418 815.638 160.558C815.921 159.707 816.294 159.062 816.599 158.641C817.16 157.869 817.262 158.15 815.771 158.966L836.876 197.573ZM859.235 162.975C859.235 154.647 856.513 145.647 849.474 138.728C842.488 131.861 833.562 129.317 825.484 129.317V173.317C824.587 173.317 821.537 172.964 818.631 170.108C815.672 167.199 815.235 164.028 815.235 162.975H859.235ZM825.484 129.317C819.382 129.317 814.39 130.657 810.066 132.597C808.218 133.426 806.62 134.312 805.656 134.848C804.514 135.484 804.002 135.776 803.355 136.107L823.365 175.294C824.909 174.505 826.344 173.69 827.056 173.294C827.945 172.799 828.108 172.728 828.079 172.741C827.931 172.807 827.47 172.997 826.818 173.145C826.164 173.293 825.678 173.317 825.484 173.317V129.317ZM802.864 136.365C802.864 136.366 802.873 136.361 802.887 136.354C802.902 136.347 802.912 136.343 802.915 136.342C802.929 136.337 802.859 136.366 802.667 136.409C802.275 136.499 801.229 136.685 799.184 136.685V180.685C808.801 180.685 816.759 178.887 823.856 175.035L802.864 136.365ZM799.184 136.685C797.375 136.685 798.301 136.218 799.947 137.68C800.724 138.371 801.335 139.229 801.721 140.106C802.094 140.955 802.145 141.558 802.149 141.723L758.168 143.004C758.463 153.14 762.432 163.207 770.723 170.573C778.85 177.794 789.149 180.685 799.184 180.685V136.685ZM802.159 142.364V139.286H758.159V142.364H802.159ZM780.159 161.286H822.966V117.286H780.159V161.286ZM822.966 161.286C830.946 161.286 842.356 159.985 851.308 151.489C860.553 142.714 862.126 131.147 862.126 122.965H818.126C818.126 124.526 817.948 124.649 818.168 123.941C818.452 123.028 819.245 121.258 821.017 119.576C822.747 117.934 824.385 117.35 824.909 117.203C825.282 117.099 824.816 117.286 822.966 117.286V161.286ZM862.126 122.965C862.126 84.7099 831.451 57.0391 792.936 57.0391V101.039C809.631 101.039 818.126 111.419 818.126 122.965H862.126ZM792.936 57.0391C773.308 57.0391 755.134 63.4007 741.777 76.5401C728.382 89.7159 721.787 107.789 721.787 127.442H765.787C765.787 117.717 768.89 111.589 772.633 107.908C776.412 104.19 782.812 101.039 792.936 101.039V57.0391ZM721.787 127.442V136.488H765.787V127.442H721.787ZM802.159 120.354V120.167H758.159V120.354H802.159ZM802.159 120.167C802.159 119.275 802.394 121.049 800.377 123.404C799.35 124.602 798.031 125.573 796.599 126.188C795.208 126.786 794.131 126.873 793.682 126.873V82.8726C783.756 82.8726 773.95 86.6187 766.959 94.7812C760.349 102.499 758.159 111.92 758.159 120.167H802.159ZM793.682 126.873C792.78 126.873 791.497 126.688 790.075 126.049C788.643 125.407 787.43 124.465 786.521 123.404C784.708 121.288 784.832 119.669 784.832 120.167H828.832C828.832 111.526 826.344 102.26 819.938 94.7812C813.264 86.9894 803.76 82.8726 793.682 82.8726V126.873ZM784.832 120.167V120.354H828.832V120.167H784.832ZM806.832 98.354H780.159V142.354H806.832V98.354Z" fill="white"/>
</g>
<g filter="url(#filter2_dd_2358_1177)">
<path d="M93.2266 182.933C104.604 182.933 111.599 175.658 111.599 163.721V84.355H133.049C141.07 84.355 147.039 77.9199 147.039 69.5264C147.039 61.1328 141.07 54.6978 133.049 54.6978H53.5903C45.5698 54.6978 39.4146 61.2261 39.4146 69.5264C39.4146 77.8267 45.5698 84.355 53.5903 84.355H74.7607V163.721C74.7607 175.751 81.6621 182.933 93.2266 182.933ZM147.139 55.9102C147.139 65.6094 154.787 72.4175 165.698 72.4175C176.517 72.4175 184.164 65.6094 184.164 55.9102C184.164 46.3975 176.517 39.5894 165.698 39.5894C154.787 39.5894 147.139 46.3975 147.139 55.9102ZM183.511 163.441V100.489C183.511 87.8057 177.263 80.9976 165.698 80.9976C154.134 80.9976 147.885 87.8057 147.885 100.489V163.441C147.885 176.125 154.134 182.933 165.698 182.933C177.263 182.933 183.511 176.125 183.511 163.441ZM192.006 135.835C192.006 167.731 211.124 184.705 241.528 184.705C254.025 184.705 264.283 181.72 271.744 176.964C279.019 172.394 283.122 166.052 283.122 159.804C283.122 152.156 278.366 146.747 270.159 146.747C264.936 146.747 261.952 149.079 258.688 151.317C254.864 154.208 250.947 156.913 244.699 156.913C232.295 156.913 228.937 147.959 228.937 134.063V127.908C228.937 115.131 233.88 106.831 244.419 106.831C249.921 106.831 253.745 109.069 257.196 111.867C260.646 114.199 264.004 116.81 269.32 116.81C277.34 116.81 282.843 111.028 282.843 103.38C282.843 97.5049 279.205 92.0957 273.516 87.8989C266.055 82.4897 254.584 79.0391 241.714 79.0391C209.725 79.0391 192.006 98.4375 192.006 125.95V135.835ZM325.657 182.933C337.035 182.933 344.03 175.658 344.03 163.721V84.355H365.48C373.5 84.355 379.469 77.9199 379.469 69.5264C379.469 61.1328 373.5 54.6978 365.48 54.6978H286.021C278 54.6978 271.845 61.2261 271.845 69.5264C271.845 77.8267 278 84.355 286.021 84.355H307.191V163.721C307.191 175.751 314.093 182.933 325.657 182.933ZM425.082 170.156H426.854V170.715C428.439 178.549 434.688 182.933 443.547 182.933C454.552 182.933 460.801 176.404 460.801 164.28V116.624C460.801 93.5879 444.294 80.3447 415.289 80.3447C402.885 80.3447 393.373 82.21 386.471 85.3809C376.586 89.7642 372.295 96.106 372.295 102.354C372.295 109.069 376.865 114.105 384.419 114.105C389.735 114.105 393.279 112.8 396.637 111.121C401.673 108.51 406.523 105.712 412.958 105.712C420.512 105.712 425.175 109.442 425.175 116.064V122.312H404.751C381.155 122.406 366.793 133.877 366.793 152.809C366.793 170.809 380.129 183.026 399.714 183.026C411.372 183.026 420.978 178.083 425.082 170.156ZM401.673 149.918C401.673 144.136 406.523 140.405 413.89 140.405H425.175V149.545C425.175 155.141 419.766 159.617 412.958 159.617C406.429 159.617 401.673 155.514 401.673 149.918ZM466.777 135.835C466.777 167.731 485.896 184.705 516.299 184.705C528.796 184.705 539.055 181.72 546.516 176.964C553.79 172.394 557.894 166.052 557.894 159.804C557.894 152.156 553.137 146.747 544.93 146.747C539.708 146.747 536.723 149.079 533.459 151.317C529.635 154.208 525.718 156.913 519.47 156.913C507.066 156.913 503.709 147.959 503.709 134.063V127.908C503.709 115.131 508.652 106.831 519.19 106.831C524.693 106.831 528.516 109.069 531.967 111.867C535.418 114.199 538.775 116.81 544.091 116.81C552.112 116.81 557.614 111.028 557.614 103.38C557.614 97.5049 553.977 92.0957 548.288 87.8989C540.827 82.4897 529.356 79.0391 516.486 79.0391C484.497 79.0391 466.777 98.4375 466.777 125.95V135.835ZM600.429 182.933C611.806 182.933 618.801 175.658 618.801 163.721V84.355H640.251C648.272 84.355 654.241 77.9199 654.241 69.5264C654.241 61.1328 648.272 54.6978 640.251 54.6978H560.792C552.772 54.6978 546.617 61.2261 546.617 69.5264C546.617 77.8267 552.772 84.355 560.792 84.355H581.963V163.721C581.963 175.751 588.864 182.933 600.429 182.933ZM691.366 79.0391C660.59 79.0391 641.005 97.7847 641.005 127.815V135.276C641.005 166.705 660.59 184.705 691.366 184.705C721.956 184.705 741.448 166.705 741.448 135.089V127.535C741.448 97.7847 721.956 79.0391 691.366 79.0391ZM691.273 104.966C699.946 104.966 704.516 112.613 704.516 127.069V136.582C704.516 150.851 699.946 158.778 691.273 158.778C682.786 158.778 677.937 150.851 677.937 136.582V127.069C677.937 112.613 682.786 104.966 691.273 104.966ZM743.787 136.488C743.787 166.705 763.838 184.705 796.573 184.705C808.883 184.705 819.329 182.373 826.323 178.27C833.318 174.446 837.235 169.316 837.235 162.975C837.235 155.7 832.665 151.317 825.484 151.317C820.168 151.317 817.743 153.462 813.36 155.7C810.096 157.472 805.899 158.685 799.184 158.685C787.34 158.685 780.439 151.97 780.159 142.364V139.286H822.966C835.276 139.286 840.126 134.716 840.126 122.965C840.126 98.0645 820.541 79.0391 792.936 79.0391C763.185 79.0391 743.787 98.0645 743.787 127.442V136.488ZM780.159 120.354V120.167C780.159 111.028 785.008 104.873 793.682 104.873C801.609 104.873 806.832 111.028 806.832 120.167V120.354H780.159Z" fill="#FF5D00"/>
</g>
<mask id="mask0_2358_1177" style="mask-type:alpha" maskUnits="userSpaceOnUse" x="39" y="39" width="802" height="146">
<path d="M93.2266 182.933C104.604 182.933 111.599 175.658 111.599 163.721V84.355H133.049C141.07 84.355 147.039 77.9199 147.039 69.5264C147.039 61.1328 141.07 54.6978 133.049 54.6978H53.5903C45.5698 54.6978 39.4146 61.2261 39.4146 69.5264C39.4146 77.8267 45.5698 84.355 53.5903 84.355H74.7607V163.721C74.7607 175.751 81.6621 182.933 93.2266 182.933ZM147.139 55.9102C147.139 65.6094 154.787 72.4175 165.698 72.4175C176.517 72.4175 184.164 65.6094 184.164 55.9102C184.164 46.3975 176.517 39.5894 165.698 39.5894C154.787 39.5894 147.139 46.3975 147.139 55.9102ZM183.511 163.441V100.489C183.511 87.8057 177.263 80.9976 165.698 80.9976C154.134 80.9976 147.885 87.8057 147.885 100.489V163.441C147.885 176.125 154.134 182.933 165.698 182.933C177.263 182.933 183.511 176.125 183.511 163.441ZM192.006 135.835C192.006 167.731 211.124 184.705 241.528 184.705C254.025 184.705 264.283 181.72 271.744 176.964C279.019 172.394 283.122 166.052 283.122 159.804C283.122 152.156 278.366 146.747 270.159 146.747C264.936 146.747 261.952 149.079 258.688 151.317C254.864 154.208 250.947 156.913 244.699 156.913C232.295 156.913 228.937 147.959 228.937 134.063V127.908C228.937 115.131 233.88 106.831 244.419 106.831C249.921 106.831 253.745 109.069 257.196 111.867C260.646 114.199 264.004 116.81 269.32 116.81C277.34 116.81 282.843 111.028 282.843 103.38C282.843 97.5049 279.205 92.0957 273.516 87.8989C266.055 82.4897 254.584 79.0391 241.714 79.0391C209.725 79.0391 192.006 98.4375 192.006 125.95V135.835ZM325.657 182.933C337.035 182.933 344.03 175.658 344.03 163.721V84.355H365.48C373.5 84.355 379.469 77.9199 379.469 69.5264C379.469 61.1328 373.5 54.6978 365.48 54.6978H286.021C278 54.6978 271.845 61.2261 271.845 69.5264C271.845 77.8267 278 84.355 286.021 84.355H307.191V163.721C307.191 175.751 314.093 182.933 325.657 182.933ZM425.082 170.156H426.854V170.715C428.439 178.549 434.688 182.933 443.547 182.933C454.552 182.933 460.801 176.404 460.801 164.28V116.624C460.801 93.5879 444.294 80.3447 415.289 80.3447C402.885 80.3447 393.373 82.21 386.471 85.3809C376.586 89.7642 372.295 96.106 372.295 102.354C372.295 109.069 376.865 114.105 384.419 114.105C389.735 114.105 393.279 112.8 396.637 111.121C401.673 108.51 406.523 105.712 412.958 105.712C420.512 105.712 425.175 109.442 425.175 116.064V122.312H404.751C381.155 122.406 366.793 133.877 366.793 152.809C366.793 170.809 380.129 183.026 399.714 183.026C411.372 183.026 420.978 178.083 425.082 170.156ZM401.673 149.918C401.673 144.136 406.523 140.405 413.89 140.405H425.175V149.545C425.175 155.141 419.766 159.617 412.958 159.617C406.429 159.617 401.673 155.514 401.673 149.918ZM466.777 135.835C466.777 167.731 485.896 184.705 516.299 184.705C528.796 184.705 539.055 181.72 546.516 176.964C553.79 172.394 557.894 166.052 557.894 159.804C557.894 152.156 553.137 146.747 544.93 146.747C539.708 146.747 536.723 149.079 533.459 151.317C529.635 154.208 525.718 156.913 519.47 156.913C507.066 156.913 503.709 147.959 503.709 134.063V127.908C503.709 115.131 508.652 106.831 519.19 106.831C524.693 106.831 528.516 109.069 531.967 111.867C535.418 114.199 538.775 116.81 544.091 116.81C552.112 116.81 557.614 111.028 557.614 103.38C557.614 97.5049 553.977 92.0957 548.288 87.8989C540.827 82.4897 529.356 79.0391 516.486 79.0391C484.497 79.0391 466.777 98.4375 466.777 125.95V135.835ZM600.429 182.933C611.806 182.933 618.801 175.658 618.801 163.721V84.355H640.251C648.272 84.355 654.241 77.9199 654.241 69.5264C654.241 61.1328 648.272 54.6978 640.251 54.6978H560.792C552.772 54.6978 546.617 61.2261 546.617 69.5264C546.617 77.8267 552.772 84.355 560.792 84.355H581.963V163.721C581.963 175.751 588.864 182.933 600.429 182.933ZM691.366 79.0391C660.59 79.0391 641.005 97.7847 641.005 127.815V135.276C641.005 166.705 660.59 184.705 691.366 184.705C721.956 184.705 741.448 166.705 741.448 135.089V127.535C741.448 97.7847 721.956 79.0391 691.366 79.0391ZM691.273 104.966C699.946 104.966 704.516 112.613 704.516 127.069V136.582C704.516 150.851 699.946 158.778 691.273 158.778C682.786 158.778 677.937 150.851 677.937 136.582V127.069C677.937 112.613 682.786 104.966 691.273 104.966ZM743.787 136.488C743.787 166.705 763.838 184.705 796.573 184.705C808.883 184.705 819.329 182.373 826.323 178.27C833.318 174.446 837.235 169.316 837.235 162.975C837.235 155.7 832.665 151.317 825.484 151.317C820.168 151.317 817.743 153.462 813.36 155.7C810.096 157.472 805.899 158.685 799.184 158.685C787.34 158.685 780.439 151.97 780.159 142.364V139.286H822.966C835.276 139.286 840.126 134.716 840.126 122.965C840.126 98.0645 820.541 79.0391 792.936 79.0391C763.185 79.0391 743.787 98.0645 743.787 127.442V136.488ZM780.159 120.354V120.167C780.159 111.028 785.008 104.873 793.682 104.873C801.609 104.873 806.832 111.028 806.832 120.167V120.354H780.159Z" fill="#7300E0"/>
</mask>
<g mask="url(#mask0_2358_1177)">
<g filter="url(#filter3_f_2358_1177)">
<path d="M444 133C717.381 133 939 93.6011 939 45C939 -3.60106 717.381 -43 444 -43C170.619 -43 -51 -3.60106 -51 45C-51 93.6011 170.619 133 444 133Z" fill="url(#paint0_radial_2358_1177)"/>
</g>
</g>
<defs>
<filter id="filter0_d_2358_1177" x="11.4146" y="10.5894" width="856.711" height="202.116" filterUnits="userSpaceOnUse" color-interpolation-filters="sRGB">
<feFlood flood-opacity="0" result="BackgroundImageFix"/>
<feColorMatrix in="SourceAlpha" type="matrix" values="0 0 0 0 0 0 0 0 0 0 0 0 0 0 0 0 0 0 127 0" result="hardAlpha"/>
<feOffset dy="-1"/>
<feComposite in2="hardAlpha" operator="out"/>
<feColorMatrix type="matrix" values="0 0 0 0 1 0 0 0 0 1 0 0 0 0 1 0 0 0 0.7 0"/>
<feBlend mode="normal" in2="BackgroundImageFix" result="effect1_dropShadow_2358_1177"/>
<feBlend mode="normal" in="SourceGraphic" in2="effect1_dropShadow_2358_1177" result="shape"/>
</filter>
<filter id="filter1_d_2358_1177" x="15.4146" y="17.5894" width="848.711" height="195.116" filterUnits="userSpaceOnUse" color-interpolation-filters="sRGB">
<feFlood flood-opacity="0" result="BackgroundImageFix"/>
<feColorMatrix in="SourceAlpha" type="matrix" values="0 0 0 0 0 0 0 0 0 0 0 0 0 0 0 0 0 0 127 0" result="hardAlpha"/>
<feOffset dy="4"/>
<feGaussianBlur stdDeviation="1"/>
<feComposite in2="hardAlpha" operator="out"/>
<feColorMatrix type="matrix" values="0 0 0 0 0.393611 0 0 0 0 0.17875 0 0 0 0 0.595833 0 0 0 0.1 0"/>
<feBlend mode="normal" in2="BackgroundImageFix" result="effect1_dropShadow_2358_1177"/>
<feBlend mode="normal" in="SourceGraphic" in2="effect1_dropShadow_2358_1177" result="shape"/>
</filter>
<filter id="filter2_dd_2358_1177" x="33.4146" y="36.5894" width="812.711" height="158.116" filterUnits="userSpaceOnUse" color-interpolation-filters="sRGB">
<feFlood flood-opacity="0" result="BackgroundImageFix"/>
<feColorMatrix in="SourceAlpha" type="matrix" values="0 0 0 0 0 0 0 0 0 0 0 0 0 0 0 0 0 0 127 0" result="hardAlpha"/>
<feOffset dy="-2"/>
<feGaussianBlur stdDeviation="0.5"/>
<feComposite in2="hardAlpha" operator="out"/>
<feColorMatrix type="matrix" values="0 0 0 0 0 0 0 0 0 0 0 0 0 0 0 0 0 0 0.2 0"/>
<feBlend mode="normal" in2="BackgroundImageFix" result="effect1_dropShadow_2358_1177"/>
<feColorMatrix in="SourceAlpha" type="matrix" values="0 0 0 0 0 0 0 0 0 0 0 0 0 0 0 0 0 0 127 0" result="hardAlpha"/>
<feOffset dy="4"/>
<feGaussianBlur stdDeviation="3"/>
<feComposite in2="hardAlpha" operator="out"/>
<feColorMatrix type="matrix" values="0 0 0 0 1 0 0 0 0 1 0 0 0 0 1 0 0 0 0.3 0"/>
<feBlend mode="normal" in2="effect1_dropShadow_2358_1177" result="effect2_dropShadow_2358_1177"/>
<feBlend mode="normal" in="SourceGraphic" in2="effect2_dropShadow_2358_1177" result="shape"/>
</filter>
<filter id="filter3_f_2358_1177" x="-101" y="-93" width="1090" height="276" filterUnits="userSpaceOnUse" color-interpolation-filters="sRGB">
<feFlood flood-opacity="0" result="BackgroundImageFix"/>
<feBlend mode="normal" in="SourceGraphic" in2="BackgroundImageFix" result="shape"/>
<feGaussianBlur stdDeviation="25" result="effect1_foregroundBlur_2358_1177"/>
</filter>
<radialGradient id="paint0_radial_2358_1177" cx="0" cy="0" r="1" gradientUnits="userSpaceOnUse" gradientTransform="translate(444 45) rotate(90) scale(88 495)">
<stop offset="0.348958" stop-color="white" stop-opacity="0.4"/>
<stop offset="1" stop-color="white" stop-opacity="0"/>
</radialGradient>
</defs>
</svg>
